# xmcd CD database file generated by OrangeCD 6.4
#
# Track frame offsets:
#	150
#	13426
#	25495
#	39289
#	58822
#	74136
#	85135
#	101013
#	114584
#	129889
#	140697
#	154672
#	167982
#	181497
#	193181
#	203857
#	215665
#	229212
#
# Disc length: 3229 seconds
#
# Revision: 1
# Processed by: cddbd v1.5.2PL0 Copyright (c) Steve Scherf et al.
# Submitted via: OrangeCD 6.4
#
DISCID=140c9b12
DTITLE=Etta James - The Very Best of Etta James: The Chess Singles
DYEAR=2005
DGENRE=Soul Blues
TTITLE0=Pushover
TTITLE1=Pay Back
TTITLE2=Two Sides (To Every Story)
TTITLE3=Baby What You Want Me To Do
TTITLE4=Lovin' You More Every Day
TTITLE5=Breaking Point
TTITLE6=Bobby Is His Name
TTITLE7=Do I Make Myself Clear
TTITLE8=Only Time Will Tell
TTITLE9=In The Basement Part One
TTITLE10=I Prefer You
TTITLE11=It Must Be Your Love
TTITLE12=842-3089 (Call My Name)
TTITLE13=I'd Rather Go Blind
TTITLE14=Tell Mama
TTITLE15=I Wish Someone Would Care
TTITLE16=Do Right Woman, Do Right Man
TTITLE17=Light My Fire
EXTD=
EXTT0=
EXTT1=
EXTT2=
EXTT3=
EXTT4=
EXTT5=
EXTT6=
EXTT7=
EXTT8=
EXTT9=
EXTT10=
EXTT11=
EXTT12=
EXTT13=
EXTT14=
EXTT15=
EXTT16=
EXTT17=
PLAYORDER=
